<svg width="24" height="24" viewBox="0 0 24 24" fill="none" xmlns="http://www.w3.org/2000/svg">
<path d="M11.25 12.75C11.25 12.3358 11.5858 12 12 12C13.6569 12 15 10.6569 15 9C15 7.34315 13.6569 6 12 6C10.3431 6 9 7.34315 9 9C9 9.41421 8.66421 9.75 8.25 9.75C7.83579 9.75 7.5 9.41421 7.5 9C7.5 6.51472 9.51472 4.5 12 4.5C14.4853 4.5 16.5 6.51472 16.5 9C16.5 11.2297 14.8783 13.0807 12.75 13.4378V14.25C12.75 14.6642 12.4142 15 12 15C11.5858 15 11.25 14.6642 11.25 14.25V12.75ZM12 24C5.37258 24 0 18.6274 0 12C0 5.37258 5.37258 0 12 0C18.6274 0 24 5.37258 24 12C24 18.6274 18.6274 24 12 24ZM12 22.5C17.799 22.5 22.5 17.799 22.5 12C22.5 6.20101 17.799 1.5 12 1.5C6.20101 1.5 1.5 6.20101 1.5 12C1.5 17.799 6.20101 22.5 12 22.5ZM12 19.125C11.3787 19.125 10.875 18.6213 10.875 18C10.875 17.3787 11.3787 16.875 12 16.875C12.6213 16.875 13.125 17.3787 13.125 18C13.125 18.6213 12.6213 19.125 12 19.125Z" fill="#1F2124"/>
</svg>
