<svg width="32" height="32" viewBox="0 0 32 32" fill="none" xmlns="http://www.w3.org/2000/svg">
<g clip-path="url(#clip0_19_1)">
<path d="M21.9998 17V20C21.9998 21.6569 20.6567 23 18.9998 23H16.9998C15.343 23 13.9998 21.6569 13.9998 20V17H10.9998V19H8.99983V17H6.99983C6.44754 17 5.99983 17.4477 5.99983 18V29C5.99983 29.5523 6.44754 30 6.99983 30H8.99983V21H10.9998V30H24.9998V21H26.9998V30H28.9998C29.5521 30 29.9998 29.5523 29.9998 29V18C29.9998 17.4477 29.5521 17 28.9998 17H26.9998V19H24.9998V17H21.9998ZM2.44157 14C0.809549 14 -0.163283 13.536 0.0151077 12.2281C0.063831 11.8708 0.204422 11.5519 0.473527 11.0754C0.49048 11.0454 0.962717 10.2391 1.10517 9.97625C1.67571 8.9237 1.96882 8.00994 1.96882 7C1.96882 5.99005 1.67571 5.0763 1.10517 4.02375C0.962717 3.76095 0.49048 2.95459 0.473527 2.92458C0.204422 2.44811 0.063831 2.12917 0.0151077 1.77194C-0.163283 0.464026 0.809549 0 2.44157 0C6.453 0 9.44158 3.06389 9.44158 7C9.44158 10.9361 6.453 14 2.44157 14ZM2.44157 12C5.33714 12 7.44158 9.84252 7.44158 7C7.44158 4.15748 5.33714 2 2.44157 2C2.37353 2 2.30993 2.00087 2.25084 2.00243C2.36625 2.20007 2.72827 2.82124 2.86347 3.07066C3.57888 4.39047 3.96882 5.60609 3.96882 7C3.96882 8.39391 3.57888 9.60953 2.86347 10.9293C2.72827 11.1788 2.36625 11.7999 2.25084 11.9976C2.30993 11.9991 2.37353 12 2.44157 12ZM6.99983 15H28.9998C30.6567 15 31.9998 16.3431 31.9998 18V29C31.9998 30.6569 30.6567 32 28.9998 32H6.99983C5.34297 32 3.99983 30.6569 3.99983 29V18C3.99983 16.3431 5.34297 15 6.99983 15ZM13.9998 13H11.9998V11C11.9998 9.34315 13.343 8 14.9998 8H20.9998C22.6567 8 23.9998 9.34315 23.9998 11V13H21.9998V11C21.9998 10.4477 21.5521 10 20.9998 10H14.9998C14.4475 10 13.9998 10.4477 13.9998 11V13ZM15.9998 17V20C15.9998 20.5523 16.4475 21 16.9998 21H18.9998C19.5521 21 19.9998 20.5523 19.9998 20V17H15.9998Z" fill="black"/>
</g>
<defs>
<clipPath id="clip0_19_1">
<rect width="32" height="32" fill="white"/>
</clipPath>
</defs>
</svg>
