<svg width="32" height="32" viewBox="0 0 32 32" fill="none" xmlns="http://www.w3.org/2000/svg">
<path fill-rule="evenodd" clip-rule="evenodd" d="M16 0C7.16344 0 0 7.16344 0 16C0 24.8366 7.16344 32 16 32C24.8366 32 32 24.8366 32 16C32 7.16344 24.8366 0 16 0ZM6.83278 5.4185C9.28889 3.2888 12.4939 2 16 2C23.732 2 30 8.26801 30 16C30 19.5061 28.7112 22.7111 26.5815 25.1672L6.83278 5.4185ZM5.41856 6.83271C3.28883 9.28884 2 12.4939 2 16C2 23.732 8.26801 30 16 30C19.5061 30 22.7112 28.7112 25.1673 26.5814L5.41856 6.83271Z" fill="black"/>
</svg>
