<svg width="32" height="32" viewBox="0 0 32 32" fill="none" xmlns="http://www.w3.org/2000/svg">
<path d="M4.88825 26.5393C4.31563 25.139 4 23.6064 4 22C4 15.3726 9.37258 10 16 10C22.6274 10 28 15.3726 28 22C28 22.2825 27.9902 22.5628 27.971 22.8405C29.8953 22.9615 30.8241 23 32 23V25C30.5879 25 29.5352 24.9477 26.8979 24.7757C21.8595 24.4471 19.4004 24.4471 16.1644 24.9864C14.257 25.3043 13.0343 25.7119 10.4586 26.7655C6.38904 28.4304 4.15275 29 0 29V27C1.94061 27 3.41216 26.8701 4.88825 26.5393ZM25.9749 22.7139C25.9915 22.4781 26 22.24 26 22C26 16.4772 21.5228 12 16 12C10.4772 12 6 16.4772 6 22C6 23.4207 6.29625 24.7722 6.83036 25.996C7.69707 25.7103 8.62738 25.3538 9.70137 24.9145C12.4057 23.8081 13.743 23.3624 15.8356 23.0136C19.0258 22.4819 21.4785 22.4446 25.9749 22.7139ZM16 0C16.5523 0 17 0.447715 17 1V7C17 7.55228 16.5523 8 16 8C15.4477 8 15 7.55228 15 7V1C15 0.447715 15.4477 0 16 0ZM30.8301 10.866C31.1063 11.3443 30.9424 11.9559 30.4641 12.2321L27.866 13.7321C27.3877 14.0082 26.7761 13.8443 26.5 13.366C26.2239 12.8877 26.3877 12.2761 26.866 12L29.4641 10.5C29.9424 10.2239 30.554 10.3877 30.8301 10.866ZM1.5 10.866C1.77614 10.3877 2.38773 10.2239 2.86603 10.5L5.4641 12C5.94239 12.2761 6.10627 12.8877 5.83013 13.366C5.55398 13.8443 4.94239 14.0082 4.4641 13.7321L1.86603 12.2321C1.38773 11.9559 1.22386 11.3443 1.5 10.866ZM30.0711 3.70711C30.4616 4.09763 30.4616 4.7308 30.0711 5.12132L25.1213 10.0711C24.7308 10.4616 24.0976 10.4616 23.7071 10.0711C23.3166 9.68054 23.3166 9.04738 23.7071 8.65685L28.6569 3.70711C29.0474 3.31658 29.6805 3.31658 30.0711 3.70711ZM1.81802 3.70711C2.20854 3.31658 2.84171 3.31658 3.23223 3.70711L8.18198 8.65685C8.5725 9.04738 8.5725 9.68054 8.18198 10.0711C7.79146 10.4616 7.15829 10.4616 6.76777 10.0711L1.81802 5.12132C1.4275 4.7308 1.4275 4.09763 1.81802 3.70711ZM21.866 4.5C22.3443 4.77614 22.5082 5.38773 22.232 5.86603L21.232 7.59808C20.9559 8.07637 20.3443 8.24024 19.866 7.9641C19.3877 7.68796 19.2239 7.07637 19.5 6.59808L20.5 4.86603C20.7761 4.38773 21.3877 4.22386 21.866 4.5ZM9.86602 4.5C10.3443 4.22386 10.9559 4.38773 11.2321 4.86603L12.2321 6.59808C12.5082 7.07637 12.3443 7.68796 11.866 7.9641C11.3877 8.24024 10.7761 8.07637 10.5 7.59808L9.5 5.86603C9.22386 5.38773 9.38773 4.77614 9.86602 4.5ZM30 15C30.5523 15 31 15.4477 31 16C31 16.5523 30.5523 17 30 17C29.4477 17 29 16.5523 29 16C29 15.4477 29.4477 15 30 15ZM2 16C2.55228 16 3 16.4477 3 17C3 17.5523 2.55228 18 2 18C1.44772 18 1 17.5523 1 17C1 16.4477 1.44772 16 2 16Z" fill="black"/>
</svg>
