<svg width="32" height="32" viewBox="0 0 32 32" fill="none" xmlns="http://www.w3.org/2000/svg">
<g clip-path="url(#clip0_19_5)">
<path d="M2.23255 25.6582C2.5037 26.6045 3.01197 27.4972 3.75736 28.2426C4.54688 29.0322 5.50169 29.5557 6.5104 29.8131C6.62839 27.8944 7.4336 26.0571 8.83862 24.6521C10.1868 23.3039 11.933 22.508 13.7674 22.3416C13.4962 21.3953 12.988 20.5027 12.2426 19.7574C11.4536 18.9683 10.4995 18.445 9.49155 18.1874C9.37335 20.1063 8.56793 21.943 7.16341 23.3475C5.81507 24.6959 4.06832 25.4922 2.23255 25.6582ZM2.00902 23.6701C3.40176 23.5543 4.7269 22.9556 5.7492 21.9333C6.81365 20.8688 7.41878 19.4761 7.49786 18.0209C6.13372 18.1348 4.80111 18.7136 3.75736 19.7574C2.66972 20.845 2.08694 22.2463 2.00902 23.6701ZM8.50413 29.9789C9.86757 29.8646 11.1994 29.2859 12.2426 28.2426C13.3303 27.1549 13.9131 25.7535 13.991 24.3296C12.5995 24.4458 11.2749 25.0443 10.2528 26.0663C9.18813 27.131 8.58314 28.5241 8.50413 29.9789ZM17.8001 25.9949C17.9339 25.3344 18.0006 24.6629 18 23.9915C21.5597 23.9299 24.4751 23.5385 26.5928 22.9156C27.5201 22.6429 28.2383 22.3392 28.6975 22.047C28.8329 21.9608 28.9343 21.8826 28.9997 21.8201C28.9894 19.0166 28.7404 15.9682 28.2518 12.6755C25.472 14.2349 21.719 15 17 15C14.885 15 12.9641 14.8463 11.2379 14.5363C10.5725 14.3092 9.88786 14.1542 9.19625 14.0714C7.91643 13.7118 6.76697 13.247 5.7482 12.6755C5.66633 13.2272 5.59119 13.7721 5.52277 14.3101C4.79759 14.4947 4.08908 14.7619 3.41214 15.1115C3.56556 13.7539 3.76178 12.3544 4.00075 10.9129C4.02773 9.34573 4.78212 7.91299 6 6.99944C6.0003 4.23827 8.23876 2 11 2C11.1695 2 11.338 2.00847 11.5051 2.02527C12.6293 0.753749 14.2521 0 16 0C17.7458 0 19.3682 0.751695 20.4939 2.02424C22.32 2.20425 23.8867 3.37217 24.5967 5.0293C27.6022 5.32604 29.9561 7.84054 29.9994 10.9138C30.5164 14.0324 30.8333 16.9546 30.9495 19.6809C31.6284 20.2158 32 20.8242 32 21.5C32 24.2579 25.8119 25.8931 17.8001 25.9949H17.8001ZM27.9696 10.5046C27.7256 8.52924 26.0414 7 24 7C23.9494 7.00021 23.9494 7.00021 23.899 7.00124L23.1038 7.02085L22.9058 6.25042C22.5682 4.93633 21.3773 4.00012 20.0003 4L19.5008 3.99996L19.2008 3.60058C18.4489 2.59959 17.2752 2 16 2C14.6875 2 13.4833 2.63555 12.7368 3.68601L12.347 4.23444L11.6921 4.08C11.4676 4.02704 11.2359 4 11 4C9.34315 4 8 5.34315 8 7C8 7.13093 8.00833 7.26056 8.02481 7.38845L8.11075 8.05541L7.52547 8.38658C6.73168 8.83573 6.18675 9.61639 6.0398 10.5109C8.50982 12.1572 12.16 13 17 13C21.8461 13 25.4995 12.155 27.9696 10.5046ZM13.6569 29.6569C10.5327 32.781 5.46734 32.781 2.34315 29.6569C-0.781049 26.5327 -0.781049 21.4673 2.34315 18.3431C5.46734 15.219 10.5327 15.219 13.6569 18.3431C16.781 21.4673 16.781 26.5327 13.6569 29.6569ZM12.9487 9.56623C12.774 10.0902 12.2077 10.3733 11.6838 10.1987C11.1598 10.024 10.8767 9.45772 11.0513 8.93377C11.9022 6.38123 14.1121 5.49725 17.2425 6.27986C17.7783 6.41381 18.1041 6.95674 17.9701 7.49254C17.8362 8.02833 17.2933 8.35409 16.7575 8.22014C14.5546 7.66942 13.4312 8.11877 12.9487 9.56623Z" fill="black"/>
</g>
<defs>
<clipPath id="clip0_19_5">
<rect width="32" height="32" fill="white"/>
</clipPath>
</defs>
</svg>
