<svg width="24" height="24" viewBox="0 0 24 24" fill="none" xmlns="http://www.w3.org/2000/svg">
<path d="M6.38419 17.8025C6.65818 17.6107 7.0261 17.6235 7.28613 17.8339C7.88506 18.3185 8.55489 18.7086 9.2728 18.989C9.56055 19.1014 9.74997 19.3787 9.74997 19.6876V21.75C9.74997 22.1642 10.0858 22.5 10.5 22.5H13.5C13.9142 22.5 14.25 22.1642 14.25 21.75V19.6876C14.25 19.3787 14.4394 19.1014 14.7271 18.989C15.4455 18.7084 16.1157 18.318 16.7149 17.833C16.975 17.6225 17.3429 17.6097 17.617 17.8015L19.0126 18.7788C19.3519 19.0164 19.8196 18.9339 20.0572 18.5946L21.7779 16.1371C22.0155 15.7978 21.933 15.3302 21.5937 15.0926L19.7364 13.7921C19.5048 13.6299 19.3841 13.3514 19.4241 13.0716C19.4745 12.719 19.5 12.3612 19.5 12C19.5 11.6398 19.4746 11.283 19.4245 10.9313C19.3846 10.6516 19.5054 10.3732 19.7368 10.2111L21.5937 8.91091C21.933 8.67333 22.0155 8.20567 21.7779 7.86637L20.0572 5.40891C19.8196 5.06961 19.3519 4.98715 19.0126 5.22473L17.6193 6.20033C17.3452 6.39227 16.9771 6.37939 16.717 6.16876C16.1173 5.68295 15.4463 5.2919 14.7271 5.01103C14.4394 4.89865 14.25 4.62133 14.25 4.31241V2.25C14.25 1.83579 13.9142 1.5 13.5 1.5H10.5C10.0858 1.5 9.74997 1.83579 9.74997 2.25V4.31241C9.74997 4.62133 9.56055 4.89865 9.2728 5.01103C8.55404 5.29172 7.88348 5.68246 7.28401 6.16786C7.02398 6.37841 6.65594 6.39125 6.38186 6.19934L4.98997 5.22473C4.65067 4.98715 4.18301 5.06961 3.94543 5.40891L2.2247 7.86637C1.98711 8.20567 2.06957 8.67333 2.40888 8.91091L4.26336 10.2094C4.49486 10.3715 4.61559 10.65 4.57565 10.9298C4.52538 11.282 4.49997 11.6393 4.49997 12C4.49997 12.3617 4.52552 12.72 4.57606 13.0731C4.61613 13.353 4.4954 13.6316 4.26381 13.7938L2.40888 15.0926C2.06957 15.3302 1.98711 15.7978 2.2247 16.1371L3.94543 18.5946C4.18301 18.9339 4.65067 19.0164 4.98997 18.7788L6.38419 17.8025ZM5.85034 20.0075C4.83243 20.7203 3.42945 20.4729 2.7167 19.455L0.995968 16.9975C0.283219 15.9796 0.530601 14.5766 1.54851 13.8639L3.03701 12.8216C3.01237 12.5496 2.99997 12.2755 2.99997 12C2.99997 11.7256 3.01227 11.4526 3.03672 11.1817L1.54851 10.1396C0.530601 9.42689 0.283219 8.02391 0.995968 7.006L2.7167 4.54855C3.42945 3.53063 4.83243 3.28325 5.85034 3.996L6.79464 4.65721C7.25223 4.33228 7.73939 4.05058 8.24997 3.81626V2.25C8.24997 1.00736 9.25733 0 10.5 0L13.5 0C14.7426 0 15.75 1.00736 15.75 2.25V3.81626C16.261 4.0508 16.7486 4.33282 17.2066 4.65814L18.1522 3.996C19.1702 3.28325 20.5731 3.53063 21.2859 4.54855L23.0066 7.006C23.7194 8.02391 23.472 9.42689 22.4541 10.1396L20.9634 11.1834C20.9877 11.4538 21 11.7262 21 12C21 12.2749 20.9876 12.5484 20.9631 12.8199L22.4541 13.8639C23.472 14.5766 23.7194 15.9796 23.0066 16.9975L21.2859 19.455C20.5731 20.4729 19.1702 20.7203 18.1522 20.0075L17.2041 19.3436C16.7469 19.6682 16.2601 19.9496 15.75 20.1837V21.75C15.75 22.9926 14.7426 24 13.5 24H10.5C9.25733 24 8.24997 22.9926 8.24997 21.75V20.1837C7.74031 19.9498 7.254 19.6687 6.79713 19.3446L5.85034 20.0075ZM12 17.25C9.10047 17.25 6.74997 14.8995 6.74997 12C6.74997 9.1005 9.10047 6.75 12 6.75C14.8995 6.75 17.25 9.1005 17.25 12C17.25 14.8995 14.8995 17.25 12 17.25ZM12 15.75C14.071 15.75 15.75 14.0711 15.75 12C15.75 9.92893 14.071 8.25 12 8.25C9.9289 8.25 8.24997 9.92893 8.24997 12C8.24997 14.0711 9.9289 15.75 12 15.75Z" fill="#1F2124"/>
</svg>
