<svg width="32" height="32" viewBox="0 0 32 32" fill="none" xmlns="http://www.w3.org/2000/svg">
<g clip-path="url(#clip0_19_7)">
<path d="M23.0255 12H22.9998V11.9763L17.9998 7.36091L7.99983 16.5917V30H9.99983V27C9.99983 24.7909 11.7907 23 13.9998 23C16.209 23 17.9998 24.7909 17.9998 27V30H27.9998V16.5917L23.0255 12ZM29.9998 15.716L31.6781 17.2652C32.0839 17.6398 32.1092 18.2725 31.7346 18.6783C31.36 19.0841 30.7274 19.1094 30.3215 18.7348L29.9998 18.4378V32H15.9998V27C15.9998 25.8954 15.1044 25 13.9998 25C12.8953 25 11.9998 25.8954 11.9998 27V32H5.99983V18.4378L5.67811 18.7348C5.27229 19.1094 4.63963 19.0841 4.26502 18.6783C3.89042 18.2725 3.91573 17.6398 4.32155 17.2652L17.9998 4.63909L22.9998 9.25448V8.5C22.9998 7.67157 23.6714 7 24.4998 7H28.4998C29.3283 7 29.9998 7.67157 29.9998 8.5V15.716ZM27.9998 13.8699V9H24.9998V11.1006L27.9998 13.8699ZM20.9998 21H22.9998V18H20.9998V21ZM24.9998 21H25.9998V23H17.9998V21H18.9998V18C18.9998 16.8954 19.8953 16 20.9998 16H22.9998C24.1044 16 24.9998 16.8954 24.9998 18V21ZM2.44157 14C0.809549 14 -0.163283 13.536 0.0151077 12.2281C0.063831 11.8708 0.204422 11.5519 0.473527 11.0754C0.49048 11.0454 0.962717 10.2391 1.10517 9.97625C1.67571 8.9237 1.96882 8.00994 1.96882 7C1.96882 5.99005 1.67571 5.0763 1.10517 4.02375C0.962717 3.76095 0.49048 2.95459 0.473527 2.92458C0.204422 2.44811 0.063831 2.12917 0.0151077 1.77194C-0.163283 0.464026 0.809549 0 2.44157 0C6.453 0 9.44158 3.06389 9.44158 7C9.44158 10.9361 6.453 14 2.44157 14ZM2.44157 12C5.33714 12 7.44158 9.84252 7.44158 7C7.44158 4.15748 5.33714 2 2.44157 2C2.37353 2 2.30993 2.00087 2.25084 2.00243C2.36625 2.20007 2.72827 2.82124 2.86347 3.07066C3.57888 4.39047 3.96882 5.60609 3.96882 7C3.96882 8.39391 3.57888 9.60953 2.86347 10.9293C2.72827 11.1788 2.36625 11.7999 2.25084 11.9976C2.30993 11.9991 2.37353 12 2.44157 12Z" fill="black"/>
</g>
<defs>
<clipPath id="clip0_19_7">
<rect width="32" height="32" fill="white"/>
</clipPath>
</defs>
</svg>
