<svg width="32" height="32" viewBox="0 0 32 32" fill="none" xmlns="http://www.w3.org/2000/svg">
<g clip-path="url(#clip0_19_9)">
<path d="M1.8 15.4C0.474517 13.6327 0.832689 11.1255 2.6 9.8L7.2 6.35C8.26667 5.55 9.73333 5.55 10.8 6.35L15.4 9.8C17.1673 11.1255 17.5255 13.6327 16.2 15.4C14.8745 17.1673 12.3673 17.5255 10.6 16.2C9.95906 15.7193 9.423 15.5 9 15.5C8.577 15.5 8.04094 15.7193 7.4 16.2C5.63269 17.5255 3.12548 17.1673 1.8 15.4ZM9 13.5C9.91033 13.5 10.8409 13.8807 11.8 14.6C12.6837 15.2627 13.9373 15.0837 14.6 14.2C15.2627 13.3163 15.0837 12.0627 14.2 11.4L9.6 7.95C9.24444 7.68333 8.75556 7.68333 8.4 7.95L3.8 11.4C2.91634 12.0627 2.73726 13.3163 3.4 14.2C4.06274 15.0837 5.31634 15.2627 6.2 14.6C7.15906 13.8807 8.08967 13.5 9 13.5ZM1.5 8C0.671573 8 0 7.10457 0 6C0 4.89543 0.671573 4 1.5 4C2.32843 4 3 4.89543 3 6C3 7.10457 2.32843 8 1.5 8ZM6 5C4.89543 5 4 3.88071 4 2.5C4 1.11929 4.89543 0 6 0C7.10457 0 8 1.11929 8 2.5C8 3.88071 7.10457 5 6 5ZM12 5C10.8954 5 10 3.88071 10 2.5C10 1.11929 10.8954 0 12 0C13.1046 0 14 1.11929 14 2.5C14 3.88071 13.1046 5 12 5ZM16.5 8C15.6716 8 15 7.10457 15 6C15 4.89543 15.6716 4 16.5 4C17.3284 4 18 4.89543 18 6C18 7.10457 17.3284 8 16.5 8ZM15.8 30.4C14.4745 28.6327 14.8327 26.1255 16.6 24.8L21.2 21.35C22.2667 20.55 23.7333 20.55 24.8 21.35L29.4 24.8C31.1673 26.1255 31.5255 28.6327 30.2 30.4C28.8745 32.1673 26.3673 32.5255 24.6 31.2C23.9591 30.7193 23.423 30.5 23 30.5C22.577 30.5 22.0409 30.7193 21.4 31.2C19.6327 32.5255 17.1255 32.1673 15.8 30.4ZM20.2 29.6C21.1591 28.8807 22.0897 28.5 23 28.5C23.9103 28.5 24.8409 28.8807 25.8 29.6C26.6837 30.2627 27.9373 30.0837 28.6 29.2C29.2627 28.3163 29.0837 27.0627 28.2 26.4L23.6 22.95C23.2444 22.6833 22.7556 22.6833 22.4 22.95L17.8 26.4C16.9163 27.0627 16.7373 28.3163 17.4 29.2C18.0627 30.0837 19.3163 30.2627 20.2 29.6ZM15.5 23C14.6716 23 14 22.1046 14 21C14 19.8954 14.6716 19 15.5 19C16.3284 19 17 19.8954 17 21C17 22.1046 16.3284 23 15.5 23ZM20 20C18.8954 20 18 18.8807 18 17.5C18 16.1193 18.8954 15 20 15C21.1046 15 22 16.1193 22 17.5C22 18.8807 21.1046 20 20 20ZM26 20C24.8954 20 24 18.8807 24 17.5C24 16.1193 24.8954 15 26 15C27.1046 15 28 16.1193 28 17.5C28 18.8807 27.1046 20 26 20ZM30.5 23C29.6716 23 29 22.1046 29 21C29 19.8954 29.6716 19 30.5 19C31.3284 19 32 19.8954 32 21C32 22.1046 31.3284 23 30.5 23Z" fill="black"/>
</g>
<defs>
<clipPath id="clip0_19_9">
<rect width="32" height="32" fill="white"/>
</clipPath>
</defs>
</svg>
